<svg xmlns="http://www.w3.org/2000/svg" viewBox="0 0 24 24" fill="currentColor" width="1em" height="1em" aria-hidden="true" class="x1lliihq x1heor9g xlup9mm x1kky2od" role="img"><g clip-path="url(#a)"><path fill-rule="evenodd" clip-rule="evenodd" d="M17 7v1h2a3 3 0 0 1 3 3v4a3 3 0 0 1-3 3h-.17a3.001 3.001 0 0 1-5.66 0H9.83a3.001 3.001 0 0 1-5.701-.128A3.001 3.001 0 0 1 2 15V7a3 3 0 0 1 3-3h9a3 3 0 0 1 3 3zM4.292 15.706A.997.997 0 0 1 4 15V7a1 1 0 0 1 1-1h9a1 1 0 0 1 1 1v7.17A3.009 3.009 0 0 0 13.17 16H9.83a3.001 3.001 0 0 0-5.538-.293zM17 14.17A3.009 3.009 0 0 1 18.83 16H19a1 1 0 0 0 1-1v-4a1 1 0 0 0-1-1h-2v4.17zM7 18a1 1 0 1 0 0-2 1 1 0 0 0 0 2zm9 0a1 1 0 1 0 0-2 1 1 0 0 0 0 2z"/></g><defs><clipPath><path d="M0 0H24V24H0z"/></clipPath></defs></svg>